<?xml version="1.0" standalone="no"?>
<!DOCTYPE svg PUBLIC "-//W3C//DTD SVG 20010904//EN"
 "http://www.w3.org/TR/2001/REC-SVG-20010904/DTD/svg10.dtd">
<svg version="1.0" xmlns="http://www.w3.org/2000/svg"
 width="512.000000pt" height="512.000000pt" viewBox="0 0 512.000000 512.000000"
 preserveAspectRatio="xMidYMid meet">

<g transform="translate(0.000000,512.000000) scale(0.100000,-0.100000)"
fill="#000000" stroke="none">
<path d="M2305 4909 c-442 -47 -848 -327 -1054 -728 -55 -108 -110 -262 -132
-376 -21 -107 -18 -398 5 -505 55 -255 170 -475 344 -660 44 -47 107 -105 140
-130 61 -45 73 -60 49 -60 -28 0 -260 -123 -372 -198 -599 -398 -950 -1014
-991 -1738 -10 -175 16 -238 116 -290 50 -25 144 -24 195 3 84 44 115 108 115
234 0 105 25 286 54 400 75 288 219 549 422 768 153 163 314 282 519 381 419
203 887 234 1330 88 84 -27 264 -110 380 -175 70 -39 154 -39 213 0 61 40 95
97 100 167 6 77 -10 120 -61 167 -45 41 -234 142 -354 188 l-71 27 56 48 c82
68 192 187 252 272 105 149 193 360 225 543 20 116 20 326 0 452 -65 406 -336
779 -704 971 -123 64 -182 87 -300 117 -165 41 -309 51 -476 34z m378 -448
c89 -23 223 -84 294 -132 280 -192 437 -542 393 -879 -49 -380 -305 -675 -677
-782 -104 -30 -362 -33 -461 -5 -178 49 -330 136 -443 254 -175 182 -260 390
-260 638 0 183 28 297 112 454 123 228 340 395 594 454 109 26 113 26 245 22
84 -2 151 -10 203 -24z"/>
<path d="M3905 1918 c-53 -19 -97 -59 -121 -112 -23 -49 -24 -60 -24 -283 l0
-232 -243 -3 c-238 -3 -244 -4 -292 -29 -119 -61 -150 -226 -62 -326 60 -68
82 -73 355 -73 l242 0 0 -229 c0 -241 4 -271 48 -330 74 -99 270 -95 339 8 38
56 43 97 43 329 l0 222 228 0 c135 0 243 5 267 11 23 7 57 28 81 53 112 112
61 317 -88 354 -29 7 -132 12 -267 12 l-220 0 -3 243 -3 242 -28 47 c-49 84
-166 128 -252 96z"/>
</g>
</svg>
