<?xml version="1.0" standalone="no"?>
<!DOCTYPE svg PUBLIC "-//W3C//DTD SVG 20010904//EN"
 "http://www.w3.org/TR/2001/REC-SVG-20010904/DTD/svg10.dtd">
<svg version="1.0" xmlns="http://www.w3.org/2000/svg"
 width="512.000000pt" height="512.000000pt" viewBox="0 0 512.000000 512.000000"
 preserveAspectRatio="xMidYMid meet">

<g transform="translate(0.000000,512.000000) scale(0.100000,-0.100000)"
fill="#000000" stroke="none">
<path d="M800 5102 c-19 -9 -45 -32 -57 -51 -22 -33 -23 -41 -23 -282 l0 -249
-109 0 c-96 0 -112 -3 -142 -23 -67 -44 -88 -135 -46 -197 44 -65 67 -75 188
-78 l109 -4 0 -209 0 -209 -109 0 c-96 0 -112 -3 -142 -23 -67 -44 -88 -135
-47 -197 45 -65 68 -75 189 -78 l109 -4 0 -209 0 -209 -109 0 c-96 0 -112 -3
-142 -23 -67 -44 -88 -135 -46 -197 44 -65 67 -75 188 -78 l109 -4 0 -209 0
-209 -109 0 c-96 0 -112 -3 -142 -23 -67 -44 -88 -135 -46 -197 44 -65 67 -75
188 -78 l109 -4 0 -209 0 -209 -109 0 c-96 0 -112 -3 -142 -23 -67 -44 -88
-135 -47 -197 45 -65 68 -75 189 -78 l109 -4 0 -209 0 -209 -109 0 c-96 0
-112 -3 -142 -23 -67 -44 -88 -135 -46 -197 44 -65 67 -75 188 -78 l109 -4 0
-257 c0 -252 1 -259 23 -292 12 -19 38 -42 57 -51 33 -17 138 -18 1772 -18
1239 0 1752 3 1790 11 164 35 301 165 343 324 13 52 15 306 15 2225 0 1919 -2
2173 -15 2225 -42 159 -179 289 -343 324 -38 8 -551 11 -1790 11 -1634 0
-1739 -1 -1772 -18z m3556 -309 c69 -50 64 140 64 -2235 0 -2068 -1 -2145 -19
-2178 -10 -19 -36 -45 -57 -57 l-39 -23 -1642 0 -1643 0 0 160 0 160 108 0
c92 0 114 3 152 23 103 53 108 196 8 257 -28 17 -51 20 -150 20 l-118 0 0 210
0 210 108 0 c92 0 114 3 152 23 103 53 108 196 8 257 -28 17 -51 20 -150 20
l-118 0 0 210 0 210 108 0 c92 0 114 3 152 23 103 53 108 196 8 257 -28 17
-51 20 -150 20 l-118 0 0 210 0 210 108 0 c92 0 114 3 152 23 103 53 108 196
8 257 -28 17 -51 20 -150 20 l-118 0 0 210 0 210 108 0 c92 0 114 3 152 23
103 53 108 196 8 257 -28 17 -51 20 -150 20 l-118 0 0 210 0 210 108 0 c92 0
114 3 152 23 103 53 108 196 8 257 -28 17 -51 20 -150 20 l-118 0 0 150 0 150
1653 -2 1652 -3 31 -22z"/>
<path d="M2664 3750 c-142 -26 -266 -92 -376 -202 -61 -61 -86 -96 -122 -170
-60 -122 -76 -189 -76 -318 0 -157 48 -307 132 -414 36 -44 40 -38 -64 -96
-35 -19 -97 -69 -139 -110 -176 -175 -236 -366 -227 -724 4 -166 15 -197 88
-233 l44 -23 861 0 861 0 44 23 c80 40 85 58 84 312 -1 189 -5 231 -22 298
-28 102 -69 187 -131 269 -74 97 -126 140 -291 236 -12 7 -10 14 13 42 83 98
137 264 137 420 0 310 -192 573 -485 666 -90 28 -244 40 -331 24z m269 -320
c80 -30 167 -112 209 -198 31 -62 33 -73 33 -172 0 -93 -3 -111 -27 -163 -52
-110 -134 -182 -246 -217 -82 -25 -153 -25 -235 0 -106 33 -187 103 -243 210
-27 51 -29 63 -29 165 0 100 3 116 28 170 31 67 101 143 164 180 98 58 232 68
346 25z m178 -1080 c77 -14 167 -62 223 -117 101 -99 137 -191 139 -357 l2
-111 -690 0 -690 0 2 116 c3 162 37 251 133 347 58 57 121 93 200 114 53 14
115 17 346 17 155 1 306 -4 335 -9z"/>
</g>
</svg>
