<?xml version="1.0" standalone="no"?>
<!DOCTYPE svg PUBLIC "-//W3C//DTD SVG 20010904//EN"
 "http://www.w3.org/TR/2001/REC-SVG-20010904/DTD/svg10.dtd">
<svg version="1.0" xmlns="http://www.w3.org/2000/svg"
 width="100.000000pt" height="100.000000pt" viewBox="0 0 100.000000 100.000000"
 preserveAspectRatio="xMidYMid meet">

<g transform="translate(0.000000,100.000000) scale(0.100000,-0.100000)"
fill="#000000" stroke="none">
<path d="M151 851 c-29 -29 -33 -79 -29 -388 l3 -283 28 -27 27 -28 320 0 320
0 27 28 28 27 0 319 0 319 -24 26 -24 26 -329 0 c-311 0 -329 -1 -347 -19z
m639 -173 l0 -112 -63 62 c-34 34 -67 62 -73 62 -6 0 -21 -11 -34 -25 l-24
-25 49 -50 49 -50 -162 0 -162 0 0 -40 0 -40 162 0 162 0 -49 -50 -49 -50 24
-25 c13 -14 28 -25 34 -25 6 0 39 28 73 62 l63 62 0 -112 0 -112 -290 0 -290
0 0 290 0 290 290 0 290 0 0 -112z"/>
</g>
</svg>
