<?xml version="1.0" standalone="no"?>
<!DOCTYPE svg PUBLIC "-//W3C//DTD SVG 20010904//EN"
 "http://www.w3.org/TR/2001/REC-SVG-20010904/DTD/svg10.dtd">
<svg version="1.0" xmlns="http://www.w3.org/2000/svg"
 width="512.000000pt" height="512.000000pt" viewBox="0 0 512.000000 512.000000"
 preserveAspectRatio="xMidYMid meet">

<g transform="translate(0.000000,512.000000) scale(0.100000,-0.100000)"
fill="#000000" stroke="none">
<path d="M2321 5109 c-486 -43 -989 -249 -1376 -564 -114 -92 -294 -274 -384
-387 -229 -287 -417 -675 -495 -1023 -49 -218 -60 -325 -60 -575 0 -250 11
-357 60 -575 79 -355 272 -749 509 -1040 92 -114 274 -294 387 -384 287 -229
675 -417 1023 -495 218 -49 325 -60 575 -60 250 0 357 11 575 60 348 78 736
266 1023 495 113 90 295 270 387 384 237 291 430 685 509 1040 134 600 58
1207 -221 1745 -480 929 -1469 1472 -2512 1379z m434 -1144 c205 -56 384 -205
479 -400 60 -122 68 -166 73 -417 l5 -227 42 -25 c58 -34 123 -107 154 -174
l27 -57 0 -600 0 -600 -31 -65 c-39 -83 -111 -155 -194 -194 l-65 -31 -685 0
-685 0 -65 31 c-83 39 -155 111 -194 194 l-31 65 0 600 0 600 27 57 c31 66
104 149 160 180 l38 22 0 206 c0 175 3 219 20 286 74 289 291 498 580 560 82
17 262 11 345 -11z"/>
<path d="M2473 3730 c-167 -30 -311 -134 -388 -281 -49 -94 -65 -176 -65 -346
l0 -143 541 0 542 0 -6 168 c-4 133 -9 181 -26 233 -51 159 -192 301 -347 349
-76 23 -183 32 -251 20z"/>
<path d="M2509 2380 c-66 -20 -129 -99 -129 -163 0 -34 25 -95 50 -122 15 -17
19 -40 22 -153 l3 -134 33 -29 c61 -55 150 -30 172 49 5 20 10 83 10 140 0 96
2 106 27 138 27 36 41 110 29 158 -9 37 -56 87 -101 107 -43 20 -74 22 -116 9z"/>
</g>
</svg>
