<?xml version="1.0" standalone="no"?>
<!DOCTYPE svg PUBLIC "-//W3C//DTD SVG 20010904//EN"
 "http://www.w3.org/TR/2001/REC-SVG-20010904/DTD/svg10.dtd">
<svg version="1.0" xmlns="http://www.w3.org/2000/svg"
 width="100.000000pt" height="100.000000pt" viewBox="0 0 100.000000 100.000000"
 preserveAspectRatio="xMidYMid meet">

<g transform="translate(0.000000,100.000000) scale(0.100000,-0.100000)"
fill="#000000" stroke="none">
<path d="M140 900 c-15 -15 -20 -33 -20 -79 0 -51 -3 -59 -21 -64 -12 -3 -19
-12 -17 -19 3 -9 24 -13 61 -13 63 0 74 -18 14 -23 -33 -3 -37 -6 -37 -31 0
-21 -6 -30 -21 -34 -12 -3 -19 -12 -17 -19 3 -9 24 -13 61 -13 63 0 74 -18 14
-23 -33 -3 -37 -6 -37 -31 0 -21 -6 -30 -21 -34 -12 -3 -19 -12 -17 -19 3 -9
24 -13 61 -13 63 0 74 -18 14 -23 -33 -3 -37 -6 -37 -31 0 -21 -6 -30 -21 -34
-12 -3 -19 -12 -17 -19 3 -9 24 -13 61 -13 63 0 74 -18 14 -23 -33 -3 -37 -6
-37 -31 0 -21 -6 -30 -21 -34 -12 -3 -19 -12 -17 -19 3 -9 24 -13 61 -13 63 0
74 -18 14 -23 l-37 -3 0 -50 c0 -36 5 -54 20 -69 19 -19 33 -20 231 -20 l211
0 -39 44 c-42 48 -63 101 -63 160 l0 36 -100 0 c-55 0 -100 3 -100 8 0 22 38
56 86 77 61 27 68 48 36 107 -41 76 -18 169 47 183 32 7 97 -25 105 -53 11
-33 2 -97 -16 -127 -17 -28 -25 -85 -12 -85 3 0 24 15 45 34 49 42 113 61 179
53 l50 -6 0 184 c0 172 -1 186 -20 205 -19 19 -33 20 -320 20 -287 0 -301 -1
-320 -20z"/>
<path d="M652 469 c-48 -14 -109 -80 -123 -131 -23 -89 12 -182 88 -229 49
-31 140 -33 196 -5 l38 19 58 -57 c45 -44 59 -54 69 -44 10 10 0 24 -44 69
l-57 58 19 38 c28 56 26 147 -5 196 -47 76 -150 113 -239 86z m131 -43 c103
-43 128 -177 48 -257 -65 -65 -157 -65 -222 0 -124 123 13 325 174 257z"/>
</g>
</svg>
