<?xml version="1.0" standalone="no"?>
<!DOCTYPE svg PUBLIC "-//W3C//DTD SVG 20010904//EN"
 "http://www.w3.org/TR/2001/REC-SVG-20010904/DTD/svg10.dtd">
<svg version="1.0" xmlns="http://www.w3.org/2000/svg"
 width="90.000000pt" height="90.000000pt" viewBox="0 0 90.000000 90.000000"
 preserveAspectRatio="xMidYMid meet">

<g transform="translate(0.000000,90.000000) scale(0.100000,-0.100000)"
fill="#000000" stroke="none">
<path d="M355 797 c-134 -45 -222 -138 -256 -271 -11 -46 -11 -46 -55 -46
l-44 0 56 -85 c32 -47 60 -85 64 -85 4 0 32 38 64 85 l56 85 -45 0 c-44 0 -45
1 -39 28 47 209 278 306 460 191 49 -32 74 -32 74 -1 0 26 -25 46 -95 78 -70
32 -177 41 -240 21z"/>
<path d="M716 505 l-56 -85 45 0 c44 0 45 -1 39 -27 -49 -212 -278 -307 -460
-192 -49 32 -74 32 -74 1 0 -26 24 -46 95 -79 51 -24 73 -28 145 -28 72 0 94
4 147 29 100 46 176 139 204 250 11 46 11 46 55 46 l44 0 -56 85 c-32 47 -60
85 -64 85 -4 0 -32 -38 -64 -85z"/>
</g>
</svg>
