<?xml version="1.0" standalone="no"?>
<!DOCTYPE svg PUBLIC "-//W3C//DTD SVG 20010904//EN"
 "http://www.w3.org/TR/2001/REC-SVG-20010904/DTD/svg10.dtd">
<svg version="1.0" xmlns="http://www.w3.org/2000/svg"
 width="512.000000pt" height="512.000000pt" viewBox="0 0 512.000000 512.000000"
 preserveAspectRatio="xMidYMid meet">

<g transform="translate(0.000000,512.000000) scale(0.100000,-0.100000)"
fill="#000000" stroke="none">
<path d="M2370 5113 c-379 -36 -661 -116 -980 -278 -378 -193 -717 -497 -965
-865 -104 -156 -232 -419 -294 -605 -49 -150 -89 -321 -113 -490 -17 -118 -17
-512 0 -630 42 -295 120 -553 242 -800 137 -280 272 -468 494 -691 221 -220
412 -357 681 -489 188 -92 309 -137 500 -185 500 -126 1002 -102 1490 71 149
53 407 182 540 271 365 243 667 578 866 963 181 348 271 694 286 1090 15 426
-73 832 -263 1214 -124 250 -263 447 -458 648 -216 224 -428 378 -711 518
-296 146 -572 225 -900 255 -102 9 -333 11 -415 3z m374 -1083 c254 -65 464
-274 533 -530 27 -101 24 -293 -6 -390 -100 -324 -378 -531 -711 -531 -333 0
-611 207 -711 531 -31 98 -33 290 -6 390 70 258 276 463 529 530 102 26 269
27 372 0z m-739 -1519 c165 -111 313 -160 508 -168 243 -11 423 42 621 181 92
64 120 73 171 52 117 -49 370 -278 477 -431 154 -223 249 -481 265 -727 7
-108 -3 -146 -44 -173 -29 -19 -339 -85 -538 -114 -291 -42 -436 -53 -806 -58
-369 -5 -528 1 -809 33 -273 31 -689 110 -734 139 -40 26 -50 65 -43 173 16
245 113 511 268 732 101 144 317 342 455 415 65 35 86 30 209 -54z"/>
<path d="M2410 3791 c-177 -56 -314 -216 -343 -400 -38 -246 116 -487 356
-556 74 -21 200 -21 274 0 184 53 326 215 356 404 37 240 -112 480 -342 551
-82 26 -223 26 -301 1z"/>
<path d="M1793 2276 c-134 -101 -277 -275 -357 -434 -68 -135 -141 -398 -112
-407 59 -21 414 -76 646 -102 238 -26 942 -26 1180 0 232 26 587 81 646 102
16 5 -8 132 -46 247 -75 226 -225 436 -417 590 l-63 50 -48 -30 c-306 -196
-686 -245 -1036 -135 -78 24 -234 97 -286 132 -14 10 -30 21 -37 24 -6 4 -38
-13 -70 -37z"/>
</g>
</svg>
