<?xml version="1.0" standalone="no"?>
<!DOCTYPE svg PUBLIC "-//W3C//DTD SVG 20010904//EN"
 "http://www.w3.org/TR/2001/REC-SVG-20010904/DTD/svg10.dtd">
<svg version="1.0" xmlns="http://www.w3.org/2000/svg"
 width="512.000000pt" height="512.000000pt" viewBox="0 0 512.000000 512.000000"
 preserveAspectRatio="xMidYMid meet">

<g transform="translate(0.000000,512.000000) scale(0.100000,-0.100000)"
fill="#000000" stroke="none">
<path d="M655 5109 c-243 -41 -460 -202 -570 -424 -88 -179 -80 25 -80 -2125
0 -2150 -8 -1946 80 -2125 76 -153 198 -275 350 -350 179 -88 -25 -80 2125
-80 2150 0 1946 -8 2125 80 153 76 275 198 350 350 88 179 80 -25 80 2125 0
2150 8 1946 -80 2125 -76 153 -197 274 -350 350 -178 87 29 79 -2095 81 -1037
1 -1907 -2 -1935 -7z m2047 -943 c172 -33 313 -111 436 -240 92 -97 160 -219
193 -343 30 -110 29 -288 0 -397 -73 -274 -274 -481 -551 -568 -64 -20 -96
-23 -220 -23 -124 0 -156 3 -220 23 -276 87 -478 294 -551 568 -16 60 -21 108
-21 199 0 148 22 237 89 368 83 162 261 319 428 377 139 49 284 61 417 36z
m-862 -1596 c11 -6 52 -34 92 -63 371 -265 885 -265 1256 0 99 71 109 76 151
69 109 -17 432 -304 563 -501 156 -234 255 -517 273 -780 6 -80 4 -94 -15
-123 -27 -44 -56 -55 -256 -96 -873 -179 -1787 -181 -2658 -5 -231 46 -258 56
-286 101 -19 29 -21 43 -15 123 18 267 115 543 276 785 82 124 290 333 416
418 123 83 158 96 203 72z"/>
<path d="M2470 3934 c-272 -53 -464 -280 -463 -548 0 -159 53 -286 163 -396
217 -215 563 -215 780 0 112 112 164 238 163 400 0 161 -56 284 -179 400 -104
97 -206 139 -349 145 -49 2 -101 1 -115 -1z"/>
<path d="M1720 2261 c-36 -27 -106 -91 -156 -142 -177 -184 -293 -398 -349
-647 -37 -161 -48 -144 118 -175 433 -83 747 -111 1222 -111 506 -1 787 26
1308 125 78 15 76 7 46 146 -40 183 -119 360 -229 516 -64 89 -232 259 -308
311 l-41 28 -63 -40 c-97 -61 -180 -100 -291 -137 -142 -47 -258 -66 -417 -66
-78 0 -173 7 -225 16 -165 29 -370 110 -495 194 -25 17 -47 31 -50 31 -3 0
-34 -22 -70 -49z"/>
</g>
</svg>
